<?xml version="1.0" encoding="UTF-8"?>
<svg width="546px" height="183px" viewBox="0 0 546 183" version="1.1" xmlns="http://www.w3.org/2000/svg" xmlns:xlink="http://www.w3.org/1999/xlink">
    <!-- Generator: Sketch 53 (72520) - https://sketchapp.com -->
    <title>Artboard</title>
    <desc>Created with Sketch.</desc>
    <g id="Artboard" stroke="none" stroke-width="1" fill="none" fill-rule="evenodd">
        <g id="Group-2" transform="translate(0.000000, 7.000000)">
            <g id="Group-21" transform="translate(0.000000, 51.000000)">
                <g id="Group">
                    <polygon id="Fill-1" fill="#43DDC1" points="0 10 0 59.001 11.33 59.001 11.33 41.151 33.99 41.151 33.99 32.05 11.33 32.05 11.33 19.101 37 19.101 37 10"></polygon>
                    <polygon id="Fill-2" fill="#43DDC1" points="45.36 59.0003 56.69 59.0003 56.69 10.0003 45.36 10.0003"></polygon>
                    <path d="M97.5801,39.8899 L89.8401,21.1299 L82.0601,39.8899 L97.5801,39.8899 Z M101.1501,48.5099 L78.4201,48.5099 L74.0801,59.0099 L62.4801,59.0099 L84.2901,10.0099 L95.4801,10.0099 L117.3701,59.0099 L105.4801,59.0099 L101.1501,48.5099 Z" id="Fill-3" fill="#43DDC1"></path>
                    <polygon id="Fill-4" fill="#43DDC1" points="127.77 19.2503 112.11 19.2503 112.11 10.0003 154.76 10.0003 154.76 19.2503 139.1 19.2503 139.1 59.0103 127.77 59.0103"></polygon>
                    <path d="M256.96,34.5003 C256.96,19.7303 268.28,9.1603 283.53,9.1603 C291.99,9.1603 299.05,12.2403 303.67,17.8403 L296.4,24.5603 C293.374,20.8863 288.85,18.7763 284.09,18.8203 C274.93,18.8203 268.42,25.2603 268.42,34.5003 C268.42,43.7403 274.93,50.1803 284.09,50.1803 C288.866,50.2293 293.401,48.0883 296.4,44.3703 L303.67,51.0903 C299.05,56.7603 291.99,59.8403 283.46,59.8403 C268.28,59.8503 256.96,49.2503 256.96,34.5003" id="Fill-5" fill="#43DDC1"></path>
                    <path d="M330.1396,19.2503 L320.9106,19.2503 L320.9106,36.3203 L330.1396,36.3203 C337.0596,36.3203 340.5596,33.1003 340.5596,27.7803 C340.5596,22.4603 337.0596,19.2503 330.1396,19.2503 L330.1396,19.2503 Z M340.7696,59.0103 L331.3296,45.3603 L320.9106,45.3603 L320.9106,59.0103 L309.5796,59.0103 L309.5796,10.0103 L330.7696,10.0103 C343.8496,10.0103 352.0306,16.8003 352.0306,27.7903 C352.0306,35.1403 348.3206,40.5303 341.9596,43.2603 L352.9596,59.0103 L340.7696,59.0103 Z" id="Fill-7" fill="#43DDC1"></path>
                    <polygon id="Fill-9" fill="#43DDC1" points="381.3398 41.6399 381.3398 58.9999 370.0098 58.9999 370.0098 41.4999 351.0598 9.9999 363.0598 9.9999 376.1298 31.7699 389.2398 9.9999 400.3608 9.9999"></polygon>
                    <path d="M435.25,27.7801 C435.25,22.3901 431.76,19.2401 424.83,19.2401 L415.6,19.2401 L415.6,36.2501 L424.84,36.2501 C431.76,36.2501 435.25,33.1001 435.25,27.7801 M446.72,27.7801 C446.72,38.7001 438.54,45.4901 425.46,45.4901 L415.6,45.4901 L415.6,59.0001 L404.28,59.0001 L404.28,10.0001 L425.46,10.0001 C438.54,10.0001 446.72,16.7901 446.72,27.7801" id="Fill-11" fill="#43DDC1"></path>
                    <polygon id="Fill-13" fill="#43DDC1" points="464.7305 19.2503 449.0595 19.2503 449.0595 10.0003 491.7195 10.0003 491.7195 19.2503 476.0495 19.2503 476.0495 59.0103 464.7195 59.0103 464.7195 19.2503"></polygon>
                    <path d="M237.7002,60.5901 L237.7002,73.6701 L175.9602,73.6701 L175.9602,64.6701 L209.1702,38.0301 C216.8402,31.9101 218.8402,28.1901 218.8402,23.7501 C218.8402,17.9901 213.6802,13.7501 203.4902,13.7501 C194.8602,13.7501 188.2702,16.8701 183.9502,22.7501 L172.3602,15.3501 C178.9602,5.6301 190.3602,0.4701 204.6102,0.4701 C222.9502,0.4701 234.6102,9.9501 234.6102,22.5501 C234.6102,31.3101 231.1302,37.4301 220.2202,46.0701 L202.1202,60.5901 L237.7002,60.5901 Z" id="Fill-17" fill="#FFFFFF"></path>
                    <path d="M534.54,34.5003 C534.54,25.1903 527.97,18.8203 519.23,18.8203 C510.49,18.8203 503.91,25.1903 503.91,34.5003 C503.91,43.8103 510.49,50.1803 519.23,50.1803 C527.97,50.1803 534.54,43.8203 534.54,34.5003 M492.43,34.5003 C492.43,19.9403 503.76,9.1603 519.22,9.1603 C534.68,9.1603 546,19.8703 546,34.5003 C546,49.1303 534.6,59.8403 519.22,59.8403 C503.84,59.8403 492.43,49.0703 492.43,34.5003" id="Fill-15" fill="#43DDC1"></path>
                </g>
            </g>
            <path d="M132.440041,119 L141.890639,119 C154.284636,144.474207 180.171842,162 210.099255,162 C240.026668,162 265.913873,144.474207 278.307867,119.000006 L286.758484,119 C273.561747,148.469413 243.978088,169 209.599255,169 C175.22042,169 145.636761,148.469412 132.440041,119 Z M132.000013,50.9999978 C144.97039,20.9960705 174.832875,0 209.599255,0 C244.365635,0 274.22812,20.9960705 287.198496,50.9999978 L278.30787,51 C265.913873,25.5257931 240.026668,8 210.099255,8 C180.171842,8 154.284636,25.5257931 141.890642,50.9999941 L132,51 Z" id="Combined-Shape" stroke="#FFFFFF" stroke-width="10"></path>
        </g>
    </g>
</svg>