<?xml version="1.0" encoding="utf-8"?>
<!-- Generator: Adobe Illustrator 23.0.1, SVG Export Plug-In . SVG Version: 6.00 Build 0)  -->
<svg version="1.1" id="Слой_1" xmlns="http://www.w3.org/2000/svg" xmlns:xlink="http://www.w3.org/1999/xlink" x="0px" y="0px"
	 viewBox="0 0 640 480" style="enable-background:new 0 0 640 480;" xml:space="preserve">
<style type="text/css">
	.st0{fill:#451493;}
	.st1{fill:none;stroke:#FFFFFF;stroke-width:12;stroke-miterlimit:10;}
	.st2{fill:#43DDC1;}
	.st3{fill:#FFFFFF;}
</style>
<g>
	<rect y="-1" class="st0" width="640" height="480"/>
</g>
<g>
	<g>
		<circle class="st1" cx="270.5" cy="206.36" r="80"/>
		<rect x="173" y="168.25" class="st0" width="194" height="74"/>
	</g>
	<g>
		<g>
			<path class="st2" d="M73.92,188.39v12.95H96.6v9.1H73.92v17.85H62.58v-49h37.03v9.1H73.92z"/>
			<path class="st2" d="M107.99,179.29h11.34v49h-11.34V179.29z"/>
			<path class="st2" d="M163.83,217.8h-22.75l-4.34,10.5h-11.62l21.84-49h11.2l21.91,49h-11.9L163.83,217.8z M160.26,209.18
				l-7.77-18.76l-7.77,18.76H160.26z"/>
			<path class="st2" d="M190.48,188.53H174.8v-9.24h42.7v9.24h-15.68v39.76h-11.34V188.53z"/>
		</g>
		<g>
			<path class="st2" d="M319.8,203.79c0-14.77,11.34-25.34,26.6-25.34c8.47,0,15.54,3.08,20.16,8.68l-7.28,6.72
				c-3.29-3.78-7.42-5.74-12.32-5.74c-9.17,0-15.68,6.44-15.68,15.68c0,9.24,6.51,15.68,15.68,15.68c4.9,0,9.03-1.96,12.32-5.81
				l7.28,6.72c-4.62,5.67-11.69,8.75-20.23,8.75C331.14,229.14,319.8,218.57,319.8,203.79z"/>
			<path class="st2" d="M403.7,228.3l-9.45-13.65h-0.56h-9.87v13.65h-11.34v-49h21.21c13.09,0,21.28,6.79,21.28,17.78
				c0,7.35-3.71,12.74-10.08,15.47l10.99,15.75H403.7z M393.06,188.53h-9.24v17.08h9.24c6.93,0,10.43-3.22,10.43-8.54
				C403.49,191.68,399.99,188.53,393.06,188.53z"/>
			<path class="st2" d="M444.31,210.93v17.36h-11.34v-17.5l-18.97-31.5h12.04l13.09,21.77l13.09-21.77h11.13L444.31,210.93z"/>
			<path class="st2" d="M509.76,197.07c0,10.92-8.19,17.71-21.28,17.71h-9.87v13.51h-11.34v-49h21.21
				C501.57,179.29,509.76,186.08,509.76,197.07z M498.28,197.07c0-5.39-3.5-8.54-10.43-8.54h-9.24v17.01h9.24
				C494.78,205.55,498.28,202.39,498.28,197.07z"/>
			<path class="st2" d="M527.79,188.53H512.1v-9.24h42.7v9.24h-15.68v39.76h-11.34V188.53z"/>
			<path class="st2" d="M555.52,203.79c0-14.56,11.34-25.34,26.81-25.34c15.4,0,26.81,10.71,26.81,25.34
				c0,14.63-11.41,25.34-26.81,25.34C566.87,229.14,555.52,218.36,555.52,203.79z M597.67,203.79c0-9.31-6.58-15.68-15.33-15.68
				s-15.33,6.37-15.33,15.68c0,9.31,6.58,15.68,15.33,15.68S597.67,213.11,597.67,203.79z"/>
		</g>
		<g>
			<path class="st3" d="M300.52,229.88v13.08h-61.8v-9l33.24-26.64c7.68-6.12,9.72-9.84,9.72-14.28c0-5.76-5.16-9.96-15.36-9.96
				c-8.64,0-15.24,3.12-19.56,9l-11.64-7.44c6.6-9.72,18-14.88,32.28-14.88c18.36,0,30,9.48,30,22.08c0,8.76-3.48,14.88-14.4,23.52
				l-18.12,14.52H300.52z"/>
		</g>
	</g>
</g>
</svg>
